<svg height="512pt" viewBox="0 -96 512 512" width="512pt" xmlns="http://www.w3.org/2000/svg"><path d="m456.835938 0h-401.667969c-30.421875 0-55.167969 24.746094-55.167969 55.164062v208.867188c0 30.421875 24.746094 55.167969 55.167969 55.167969h401.667969c30.417968 0 55.164062-24.746094 55.164062-55.164063v-208.871094c0-30.417968-24.746094-55.164062-55.164062-55.164062zm0 0" fill="#00ab5e"/><path d="m456.835938 0h-200.835938v319.199219h200.835938c30.417968 0 55.164062-24.746094 55.164062-55.164063v-208.871094c0-30.417968-24.746094-55.164062-55.164062-55.164062zm0 0" fill="#00884a"/><path d="m202.339844 52.59375c-4.289063-4.292969-10.742188-5.574219-16.347656-3.253906-5.605469 2.320312-9.257813 7.792968-9.257813 13.859375v17.136719h-113.535156c-8.285157 0-15 6.714843-15 15v128.53125c0 8.28125 6.714843 15 15 15h113.535156v17.132812c0 6.066406 3.652344 11.535156 9.257813 13.855469 1.855468.773437 3.804687 1.144531 5.738281 1.144531 3.902343 0 7.738281-1.523438 10.609375-4.394531l96.398437-96.402344c5.859375-5.855469 5.859375-15.351563 0-21.210937zm0 0" fill="#e7f0ef"/><g fill="#c5e1e6"><path d="m448.800781 48.199219h-112.464843c-8.285157 0-15 6.714843-15 15v192.800781c0 8.28125 6.714843 15 15 15h112.464843c8.285157 0 15-6.71875 15-15v-192.800781c0-8.285157-6.714843-15-15-15zm0 0"/><path d="m298.738281 148.992188-42.738281-42.738282v106.691406l42.738281-42.742187c5.859375-5.855469 5.859375-15.351563 0-21.210937zm0 0"/></g></svg>